<svg xmlns="http://www.w3.org/2000/svg" xmlns:xlink="http://www.w3.org/1999/xlink" preserveAspectRatio="xMidYMid meet" version="1.1" viewBox="94.2 120.6 236.8 184.0" zoomAndPan="magnify" style="fill: rgb(0, 0, 0);" role="img" aria-label="Coding Programming Internet Line and Fill">
 <g id="__id79_shpe3q3ko7">
  <g id="__id80_shpe3q3ko7"><path d="m168.87 270.62c-1.31 0-2.6-0.44-3.63-1.26l-66.283-52.15c-1.426-1.12-2.242-2.8-2.242-4.61s0.816-3.49 2.238-4.62l66.287-52.14c1.03-0.82 2.32-1.26 3.63-1.26 1.81 0 3.5 0.81 4.61 2.24 0.97 1.23 1.41 2.77 1.22 4.32-0.18 1.56-0.97 2.95-2.2 3.92l-60.41 47.54 60.41 47.53c1.23 0.98 2.02 2.37 2.2 3.92 0.19 1.56-0.25 3.09-1.22 4.33-1.11 1.42-2.8 2.24-4.61 2.24" style="fill: #276749;"></path></g>
  <g id="__id81_shpe3q3ko7"><path d="m168.87 152.08c-1.87 0-3.7 0.63-5.17 1.79l-66.29 52.15c-2.035 1.61-3.195 4-3.195 6.58s1.168 4.98 3.195 6.58l66.29 52.15c1.46 1.15 3.3 1.79 5.17 1.79 2.59 0 4.99-1.17 6.58-3.2 1.39-1.75 2-3.94 1.74-6.16-0.27-2.22-1.38-4.21-3.14-5.59l-57.92-45.57 57.92-45.57c1.76-1.39 2.87-3.37 3.14-5.59 0.26-2.22-0.35-4.41-1.74-6.17-1.59-2.03-4-3.19-6.58-3.19zm0 5c1 0 1.99 0.44 2.65 1.28 1.16 1.47 0.9 3.59-0.56 4.74l-62.92 49.5 62.92 49.5c1.46 1.15 1.72 3.27 0.56 4.73-0.66 0.85-1.65 1.29-2.65 1.29-0.73 0-1.46-0.23-2.08-0.72l-66.29-52.15c-0.809-0.64-1.285-1.62-1.285-2.65 0-1.04 0.476-2.01 1.285-2.65l66.29-52.15c0.61-0.49 1.35-0.72 2.08-0.72" style="fill: #276749;"></path></g>
  <g id="__id82_shpe3q3ko7"><path d="m256.33 270.62c-1.81 0-3.49-0.82-4.62-2.24-2-2.54-1.56-6.24 0.99-8.25l60.42-47.53-60.42-47.54c-2.55-2-2.99-5.7-0.99-8.24 1.13-1.43 2.81-2.24 4.62-2.24 1.31 0 2.6 0.44 3.63 1.26l66.29 52.14c1.42 1.13 2.23 2.81 2.23 4.62s-0.81 3.49-2.24 4.61l-66.28 52.15c-1.03 0.82-2.32 1.26-3.63 1.26" style="fill: #276749;"></path></g>
  <g id="__id83_shpe3q3ko7"><path d="m256.33 152.08c-2.58 0-4.98 1.16-6.58 3.19-2.86 3.63-2.23 8.9 1.4 11.76l57.92 45.57-57.92 45.57c-3.63 2.85-4.26 8.13-1.4 11.75 1.6 2.03 4 3.2 6.58 3.2 1.87 0 3.7-0.64 5.17-1.79l66.29-52.15c2.03-1.6 3.19-4 3.19-6.58s-1.16-4.97-3.18-6.58l-66.29-52.15c-1.47-1.16-3.31-1.79-5.18-1.79zm0 5c0.73 0 1.47 0.23 2.08 0.72l66.29 52.15c0.81 0.64 1.28 1.61 1.28 2.65 0 1.03-0.47 2.01-1.28 2.65l-66.29 52.15c-0.61 0.49-1.35 0.72-2.08 0.72-1 0-1.99-0.44-2.65-1.29-1.15-1.46-0.9-3.58 0.56-4.73l62.92-49.5-62.92-49.5c-1.46-1.15-1.71-3.27-0.56-4.74 0.66-0.84 1.66-1.28 2.65-1.28" style="fill: #276749;"></path></g>
  <g id="__id84_shpe3q3ko7"><path d="m179.66 302.09c-0.73 0-1.44-0.14-2.12-0.4-1.46-0.57-2.62-1.67-3.25-3.1-0.64-1.44-0.67-3.03-0.11-4.49l64.74-167.24c0.87-2.24 3.07-3.75 5.47-3.75 0.73 0 1.45 0.14 2.13 0.4 3.01 1.17 4.52 4.58 3.35 7.6l-64.73 167.23c-0.87 2.24-3.08 3.75-5.48 3.75" style="fill: #276749;"></path></g>
  <g id="__id85_shpe3q3ko7"><path d="m244.39 120.61c-3.43 0-6.57 2.16-7.8 5.35l-64.74 167.23c-0.8 2.09-0.75 4.36 0.15 6.41 0.91 2.04 2.55 3.62 4.64 4.42 0.97 0.38 1.98 0.57 3.02 0.57 3.43 0 6.57-2.15 7.81-5.35l64.73-167.23c1.67-4.31-0.48-9.17-4.79-10.83-0.96-0.38-1.98-0.57-3.02-0.57zm0 5c0.41 0 0.82 0.08 1.22 0.23 1.74 0.67 2.6 2.62 1.93 4.36l-64.74 167.23c-0.51 1.34-1.79 2.16-3.14 2.16-0.41 0-0.82-0.07-1.22-0.23-1.74-0.67-2.6-2.63-1.92-4.36l64.73-167.23c0.52-1.34 1.79-2.16 3.14-2.16" style="fill: #276749;"></path></g>
 </g>
</svg>